<?xml version="1.0" encoding="utf-8"?>
<!-- Generator: Adobe Illustrator 27.1.1, SVG Export Plug-In . SVG Version: 6.00 Build 0)  -->
<svg version="1.1" xmlns="http://www.w3.org/2000/svg" xmlns:xlink="http://www.w3.org/1999/xlink" x="0px" y="0px"
	 viewBox="0 0 36 36" style="enable-background:new 0 0 36 36;" xml:space="preserve">
<style type="text/css">
	.st0{fill:#1677F0;}
	.st1{fill:#FFFFFF;}
	.st2{display:none;}
</style>
<g id="Camada_1">
	<g>
		<path class="st0" d="M35.34,18.25c0-9.68-7.85-17.53-17.53-17.53S0.28,8.57,0.28,18.25c0,8.75,6.41,16,14.79,17.32V23.32h-4.45
			v-5.07h4.45v-3.86c0-4.39,2.62-6.82,6.62-6.82c1.92,0,3.92,0.34,3.92,0.34v4.31h-2.21c-2.18,0-2.86,1.35-2.86,2.74v3.29h4.86
			l-0.78,5.07h-4.09v12.25C28.93,34.26,35.34,27,35.34,18.25z"/>
		<path class="st1" d="M24.63,23.32l0.78-5.07h-4.86v-3.29c0-1.39,0.68-2.74,2.86-2.74h2.21V7.91c0,0-2.01-0.34-3.92-0.34
			c-4,0-6.62,2.43-6.62,6.82v3.86h-4.45v5.07h4.45v12.25c0.89,0.14,1.81,0.21,2.74,0.21s1.85-0.07,2.74-0.21V23.32H24.63z"/>
	</g>
</g>
<g id="Camada_2" class="st2">
</g>
</svg>
